name Walk9.mot
datacolumns 19
datarows 12
range 2.17500000 2.18600000
endheader

                time	   L_ground_force_vx	   L_ground_force_vy	   L_ground_force_vz	   L_ground_force_px	   L_ground_force_py	   L_ground_force_pz	   R_ground_force_vx	   R_ground_force_vy	   R_ground_force_vz	   R_ground_force_px	   R_ground_force_py	   R_ground_force_pz	   L_ground_torque_x	   L_ground_torque_y	   L_ground_torque_z	   R_ground_torque_x	   R_ground_torque_y	   R_ground_torque_z	
          2.17500000	          0.07317783	          0.21827136	          0.00340573	         -0.00019198	          0.00000000	         -0.00006273	        -24.88673737	        875.69608767	        -61.43645909	          0.28942317	          0.00000000	          0.13214824	          0.00000000	          0.00054564	          0.00000000	          0.00000000	         10.02731554	          0.00000000	
          2.17600000	          0.06950176	          0.20897780	          0.00344949	         -0.00019966	          0.00000000	         -0.00006640	        -24.61409553	        875.62637182	        -61.30207543	          0.28965031	          0.00000000	          0.13215920	          0.00000000	          0.00053095	          0.00000000	          0.00000000	          9.97332343	          0.00000000	
          2.17700000	          0.06587562	          0.19968475	          0.00347649	         -0.00020593	          0.00000000	         -0.00006952	        -24.33995502	        875.57938756	        -61.17250733	          0.28987591	          0.00000000	          0.13216998	          0.00000000	          0.00051551	          0.00000000	          0.00000000	          9.91932806	          0.00000000	
          2.17800000	          0.06230886	          0.19042726	          0.00348807	         -0.00021089	          0.00000000	         -0.00007210	        -24.06423867	        875.55500590	        -61.04805645	          0.29009999	          0.00000000	          0.13218058	          0.00000000	          0.00049944	          0.00000000	          0.00000000	          9.86531787	          0.00000000	
          2.17900000	          0.05880991	          0.18123731	          0.00348548	         -0.00021463	          0.00000000	         -0.00007420	        -23.78687649	        875.55307234	        -60.92900480	          0.29032258	          0.00000000	          0.13219099	          0.00000000	          0.00048284	          0.00000000	          0.00000000	          9.81128185	          0.00000000	
          2.18000000	          0.05538623	          0.17214387	          0.00346994	         -0.00021725	          0.00000000	         -0.00007583	        -23.50780561	        875.57340741	        -60.81561447	          0.29054369	          0.00000000	          0.13220122	          0.00000000	          0.00046583	          0.00000000	          0.00000000	          9.75720971	          0.00000000	
          2.18100000	          0.05204435	          0.16317310	          0.00344260	         -0.00021882	          0.00000000	         -0.00007704	        -23.22697007	        875.61580687	        -60.70812730	          0.29076335	          0.00000000	          0.13221126	          0.00000000	          0.00044851	          0.00000000	          0.00000000	          9.70309204	          0.00000000	
          2.18200000	          0.04878995	          0.15434847	          0.00340459	         -0.00021943	          0.00000000	         -0.00007786	        -22.94432053	        875.68004251	        -60.60676465	          0.29098159	          0.00000000	          0.13222112	          0.00000000	          0.00043096	          0.00000000	          0.00000000	          9.64892021	          0.00000000	
          2.18300000	          0.04562789	          0.14569090	          0.00335694	         -0.00021916	          0.00000000	         -0.00007831	        -22.65981397	        875.76586429	        -60.51172724	          0.29119842	          0.00000000	          0.13223077	          0.00000000	          0.00041328	          0.00000000	          0.00000000	          9.59468631	          0.00000000	
          2.18400000	          0.04256225	          0.13721890	          0.00330065	         -0.00021808	          0.00000000	         -0.00007843	        -22.37341339	        875.87300418	        -60.42319526	          0.29141385	          0.00000000	          0.13224023	          0.00000000	          0.00039554	          0.00000000	          0.00000000	          9.54038281	          0.00000000	
          2.18500000	          0.03959644	          0.12894871	          0.00323668	         -0.00021627	          0.00000000	         -0.00007824	        -22.08508764	        876.00118137	        -60.34132871	          0.29162792	          0.00000000	          0.13224948	          0.00000000	          0.00037781	          0.00000000	          0.00000000	          9.48600242	          0.00000000	
          2.18600000	          0.03673317	          0.12089441	          0.00316592	         -0.00021380	          0.00000000	         -0.00007777	        -21.79481143	        876.15010766	        -60.26626830	          0.29184065	          0.00000000	          0.13225851	          0.00000000	          0.00036017	          0.00000000	          0.00000000	          9.43153788	          0.00000000	
